/* XPM */
static char * tree_xpm[] = {
"64 64 429 2",
"  	c #EAEAEA",
". 	c #F6F6F6",
"+ 	c #FFFFFF",
"@ 	c #EBEBEB",
"# 	c #F7F7F7",
"$ 	c #FEFEFE",
"% 	c #FDFDFD",
"& 	c #FCFCFC",
"* 	c #FBFBFB",
"= 	c #F8F8F8",
"- 	c #FAFAFA",
"; 	c #F9F9F9",
"> 	c #F4F4F4",
", 	c #F5F5F5",
"' 	c #E9E9E9",
") 	c #F3F3F3",
"! 	c #ECECEC",
"~ 	c #EDEDED",
"{ 	c #EEEEEE",
"] 	c #EFEFEF",
"^ 	c #F2F2F2",
"/ 	c #F1F1F1",
"( 	c #F0F0F0",
"_ 	c #EDF3E9",
": 	c #D2E9BC",
"< 	c #B4DE89",
"[ 	c #B1DF7C",
"} 	c #B3E082",
"| 	c #B9DF92",
"1 	c #D2E9BE",
"2 	c #E3EFD9",
"3 	c #F6F7F5",
"4 	c #EBEEE8",
"5 	c #CAE9AC",
"6 	c #9ED84C",
"7 	c #97D048",
"8 	c #93C947",
"9 	c #92C747",
"0 	c #94CB47",
"a 	c #98D148",
"b 	c #9CD74A",
"c 	c #AADD6E",
"d 	c #C7E3AD",
"e 	c #EBEFE8",
"f 	c #E6F4DB",
"g 	c #C9E4B0",
"h 	c #C2DEA6",
"i 	c #CCE8B1",
"j 	c #CDE4B8",
"k 	c #E2EDD7",
"l 	c #FEFEFD",
"m 	c #E7E7E7",
"n 	c #EFF4EB",
"o 	c #B0DF7A",
"p 	c #9AD448",
"q 	c #93C847",
"r 	c #97CF49",
"s 	c #9DD849",
"t 	c #9ED94E",
"u 	c #99D24A",
"v 	c #9AD34C",
"w 	c #9BD44C",
"x 	c #9CD64B",
"y 	c #9DD949",
"z 	c #A7DB69",
"A 	c #E4F2D8",
"B 	c #E6E6E6",
"C 	c #F1F3EF",
"D 	c #D5E9C4",
"E 	c #C2E4A0",
"F 	c #C5E6A5",
"G 	c #CBE4B3",
"H 	c #B1DE81",
"I 	c #93C848",
"J 	c #91C449",
"K 	c #94C949",
"L 	c #97CE4A",
"M 	c #98D248",
"N 	c #9CD749",
"O 	c #A0DA52",
"P 	c #DFEED2",
"Q 	c #E4EDDC",
"R 	c #A7DA68",
"S 	c #9BD649",
"T 	c #96CE48",
"U 	c #95CC48",
"V 	c #92C748",
"W 	c #91C44A",
"X 	c #90C249",
"Y 	c #92C64A",
"Z 	c #93C54B",
"` 	c #93C74A",
" .	c #96CD48",
"..	c #C4E6A2",
"+.	c #E8E8E8",
"@.	c #EBEBEA",
"#.	c #A9DB6F",
"$.	c #97CF48",
"%.	c #94CA47",
"&.	c #98D048",
"*.	c #92C549",
"=.	c #91C349",
"-.	c #92C54A",
";.	c #93C74B",
">.	c #F5FAF1",
",.	c #E2EFD7",
"'.	c #92C847",
").	c #91C548",
"!.	c #93C64B",
"~.	c #9CD849",
"{.	c #E5EEDD",
"].	c #CAE7AF",
"^.	c #94C64C",
"/.	c #93C64A",
"(.	c #92C648",
"_.	c #9AD348",
":.	c #C2E1A5",
"<.	c #EFF2EC",
"[.	c #EAEBEA",
"}.	c #C2E3A2",
"|.	c #A3D95E",
"1.	c #95CC49",
"2.	c #91C448",
"3.	c #8EC244",
"4.	c #AADA73",
"5.	c #E0E8D9",
"6.	c #D0E5BC",
"7.	c #95CC47",
"8.	c #8ABE41",
"9.	c #85B93E",
"0.	c #89BC40",
"a.	c #8CC043",
"b.	c #A8D871",
"c.	c #EEF2EB",
"d.	c #E8ECE5",
"e.	c #99CA59",
"f.	c #8BBF42",
"g.	c #84B73D",
"h.	c #8CC042",
"i.	c #A8D870",
"j.	c #ECF1E8",
"k.	c #D3E6C2",
"l.	c #8FC445",
"m.	c #88BB40",
"n.	c #83B63C",
"o.	c #86B93F",
"p.	c #8DC145",
"q.	c #92C647",
"r.	c #B5DD8B",
"s.	c #C0DAA8",
"t.	c #90C546",
"u.	c #86B83F",
"v.	c #81B33C",
"w.	c #86B840",
"x.	c #91C646",
"y.	c #DBEBCC",
"z.	c #BFD9A7",
"A.	c #90C545",
"B.	c #AED681",
"C.	c #F0EFF0",
"D.	c #D6E8C6",
"E.	c #86B93E",
"F.	c #F2F8ED",
"G.	c #D3E3C6",
"H.	c #91C647",
"I.	c #87BA3F",
"J.	c #D6E4C9",
"K.	c #E2E9DB",
"L.	c #8DC143",
"M.	c #91C547",
"N.	c #8EC344",
"O.	c #86BA3F",
"P.	c #8FC345",
"Q.	c #C7DCB3",
"R.	c #A6CE79",
"S.	c #87BB40",
"T.	c #8DC244",
"U.	c #87BB3F",
"V.	c #87A23C",
"W.	c #91BF45",
"X.	c #C7E0B0",
"Y.	c #E9F1E2",
"Z.	c #97C955",
"`.	c #88BC40",
" +	c #84B73E",
".+	c #84B63E",
"++	c #85A93C",
"@+	c #84B83D",
"#+	c #8AB440",
"$+	c #887B39",
"%+	c #8CC143",
"&+	c #B9D79B",
"*+	c #D4E5C5",
"=+	c #85A33B",
"-+	c #85B03D",
";+	c #85B83F",
">+	c #86913A",
",+	c #86943A",
"'+	c #85B33D",
")+	c #84B03C",
"!+	c #89A63E",
"~+	c #93BC46",
"{+	c #8F9A40",
"]+	c #DAE7CE",
"^+	c #A5CE77",
"/+	c #8A7B3B",
"(+	c #90763E",
"_+	c #91673D",
":+	c #93A543",
"<+	c #93B946",
"[+	c #93B845",
"}+	c #939742",
"|+	c #8EA942",
"1+	c #8ABE42",
"2+	c #8C9B3E",
"3+	c #91BA45",
"4+	c #94A043",
"5+	c #92B144",
"6+	c #938F42",
"7+	c #85B43D",
"8+	c #85B83E",
"9+	c #8FC245",
"0+	c #B0D28D",
"a+	c #DDEAD2",
"b+	c #92C046",
"c+	c #968A43",
"d+	c #92C548",
"e+	c #957740",
"f+	c #8F963F",
"g+	c #93A744",
"h+	c #8EA441",
"i+	c #859F3B",
"j+	c #85AA3C",
"k+	c #8ABD42",
"l+	c #8FC446",
"m+	c #B2D58E",
"n+	c #C3D9AF",
"o+	c #A07247",
"p+	c #979345",
"q+	c #89BD41",
"r+	c #C3DBAC",
"s+	c #A1BD86",
"t+	c #85B53D",
"u+	c #9E7546",
"v+	c #998A44",
"w+	c #91C246",
"x+	c #87953B",
"y+	c #8ABD41",
"z+	c #C1D5B0",
"A+	c #9FBB86",
"B+	c #949642",
"C+	c #9B6643",
"D+	c #93BD46",
"E+	c #94BE47",
"F+	c #928A40",
"G+	c #85A83C",
"H+	c #90C445",
"I+	c #89BC41",
"J+	c #E4EADF",
"K+	c #A5BE8D",
"L+	c #81B33D",
"M+	c #8BA93F",
"N+	c #9D6744",
"O+	c #93AC44",
"P+	c #9F7947",
"Q+	c #97B047",
"R+	c #85B640",
"S+	c #89BB42",
"T+	c #B6CF9E",
"U+	c #BFCCB4",
"V+	c #7BA93B",
"W+	c #87B943",
"X+	c #86B43E",
"Y+	c #9F6945",
"Z+	c #949442",
"`+	c #93B846",
" @	c #A07148",
".@	c #91C147",
"+@	c #8A9040",
"@@	c #89A742",
"#@	c #89BB44",
"$@	c #99C06E",
"%@	c #F8FAF7",
"&@	c #E5E5E5",
"*@	c #F3F4F2",
"=@	c #94B473",
"-@	c #85B73F",
";@	c #91C546",
">@	c #A06D47",
",@	c #987141",
"'@	c #92C547",
")@	c #989544",
"!@	c #9E8447",
"~@	c #95BA47",
"{@	c #988747",
"]@	c #90BB48",
"^@	c #92C649",
"/@	c #93C748",
"(@	c #B2CE98",
"_@	c #F4F7F2",
":@	c #E9ECE7",
"<@	c #ADCA92",
"[@	c #85B740",
"}@	c #9E7646",
"|@	c #9E6945",
"1@	c #9C7344",
"2@	c #9F8047",
"3@	c #9A9F47",
"4@	c #9C904A",
"5@	c #91BE49",
"6@	c #91BE59",
"7@	c #E1E8DC",
"8@	c #D5DFCD",
"9@	c #92BD60",
"0@	c #9A7A44",
"a@	c #A16B47",
"b@	c #A06A46",
"c@	c #9B9849",
"d@	c #91C249",
"e@	c #94C74B",
"f@	c #B7CEA1",
"g@	c #CADBBA",
"h@	c #938840",
"i@	c #9C7948",
"j@	c #91C549",
"k@	c #9FC674",
"l@	c #F7F8F5",
"m@	c #ECF0E8",
"n@	c #8ABA4D",
"o@	c #8E943E",
"p@	c #A16C48",
"q@	c #A06B48",
"r@	c #969247",
"s@	c #8EC345",
"t@	c #80B23A",
"u@	c #82B43B",
"v@	c #B0CD94",
"w@	c #EDF0EA",
"x@	c #DEE9D4",
"y@	c #89B94C",
"z@	c #8C9C3E",
"A@	c #9F6946",
"B@	c #A06B49",
"C@	c #909D44",
"D@	c #8ABD43",
"E@	c #9AC071",
"F@	c #E0E7DA",
"G@	c #D3DDCA",
"H@	c #DDE1D8",
"I@	c #F4F7F1",
"J@	c #C5D8B3",
"K@	c #95BE66",
"L@	c #86B841",
"M@	c #94BE64",
"N@	c #CADABC",
"O@	c #9CC372",
"P@	c #8C983E",
"Q@	c #A16B48",
"R@	c #8CA840",
"S@	c #F1F5ED",
"T@	c #DFE7D7",
"U@	c #8AB94D",
"V@	c #8E903E",
"W@	c #9F6A46",
"X@	c #87B23E",
"Y@	c #ACCB8D",
"Z@	c #ECEFE9",
"`@	c #EDF1EA",
" #	c #C8DBB7",
".#	c #9EC278",
"+#	c #92BE5A",
"@#	c #9A915A",
"##	c #A07046",
"$#	c #B5D09B",
"%#	c #A8C789",
"&#	c #B2CE97",
"*#	c #C8DBB8",
"=#	c #D7E0CE",
"-#	c #B19485",
";#	c #A38258",
">#	c #B7D29D",
",#	c #D0DCC4",
"'#	c #AE8E7E",
")#	c #AD856B",
"!#	c #A47960",
"~#	c #AA7E64",
"{#	c #9D6C4C",
"]#	c #AF866F",
"^#	c #9D6B4A",
"/#	c #B38F7C",
"(#	c #F9F8F8",
"_#	c #9A6642",
":#	c #B08B77",
"<#	c #E5E0DE",
"[#	c #996441",
"}#	c #B5917E",
"|#	c #D5CAC5",
"1#	c #986441",
"2#	c #A97B5F",
"3#	c #BAA297",
"4#	c #976340",
"5#	c #E2DDDB",
"6#	c #A37C66",
"7#	c #96623F",
"8#	c #D6C6BE",
"9#	c #F2F0EF",
"0#	c #966340",
"a#	c #AB7F66",
"b#	c #F2F1F0",
"c#	c #D3CAC7",
"d#	c #A06B47",
"e#	c #D0BFB6",
"f#	c #A88F83",
"g#	c #986442",
"h#	c #97623F",
"i#	c #A06A47",
"j#	c #AE968B",
"k#	c #F6F4F3",
"l#	c #F0EFEF",
"m#	c #C1B3AD",
"n#	c #C6B3AA",
"o#	c #C2ACA2",
"p#	c #B99D8F",
"q#	c #B79B8C",
"r#	c #AF8D7C",
"s#	c #B69482",
"t#	c #AD8E7F",
"u#	c #C4B7B1",
"v#	c #E4E4E4",
"  . + @ # + @ # $ @ # % @ # & @ # * @ # * @ = -   ; * @ - * @ * * @ * - @ * ; @ * = @ * # @ * . @ & # @ % # @ $ # @ + # @ + . @ ",
". > , . , , . , , . , , . , , . , , . , , . > , . > , . , , . , , . , , . , , . , , . , , . > , . > , . , , . , , . , , . , , . ",
"+ , ' + > @ + ) ! + ) ~ + ) { + ) ] + ) ] $ ^ ] + / { + ( ] + ] ] + ] ( + ] / + ] ^ + ] ) $ { ) + { ^ $ ~ ) + ! ) + @ > + @ , + ",
"@ . +   # + @ # $ @ # % @ # & @ # * @ # - @ = * @ ; *   - * @ * * @ * - @ * ; @ * = @ * #   * # @ & #   % # @ $ # @ + # @ + . @ ",
"# , > # > > # , > # , > # , > # , > # > > # , > # , > # ) > # > > # > > # > , # > , # > > # > , # > , # ) > # > , # > , # > , # ",
"+ , @ + >   + ) ! + ) ~ + ) { + ) ] $ ) ] + ) ] + / ] + ( { + ] ] + ] ( + ] / + ] ) $ ] ) + ] ) + { ) + ~ ^ $ ! ) + @ > + @ , + ",
"@ . + @ # +   # $ @ # % @ # & @ # - @ # * @ = * @ ; * @ - *   * * @ * - @ * ; @ * #   * # @ * # @ & # @ % #   $ # @ + # @ + . @ ",
"# , ) # , ) # ) ) # , > # , > # > > # , > # , > # _ : < [ } | 1 2 3 > > # > > # ) > # > , # > , # > , # > , # ^ > # ) , # ) , # ",
"$ , ! $ > ! $ ) @ $ ) ~ $ ^ ' % ) ] $ ) ( $ ) 4 5 6 7 8 9 9 0 a b c d e f g h i j k l ( ) $ ] ) $ { ) $ ~ ) $ ! ^ $ ! > $ @ / * ",
"@ . + @ # + @ # $   # % m ^ , ' # * @ # * @ n o p 8 9 9 9 9 9 9 q r s t u v w x y y z A # @ * # @ & # @ % # @ $ #   $ # ' ; ( B ",
"# , ) # , ) # , ) # , ) ^ / ) . , C D E F G H 7 9 9 9 9 9 9 9 9 9 9 q I J J K L M N y O P 3 > , # > , # > , # ) , # ) , ) ~ , . ",
"% , ~ % > ~ % > ~ % ) m = / ! & Q R S 7 T a U 9 9 9 9 9 9 9 9 9 9 9 V W X Y Z ` 9 9  .S y ..( > % ] > % { > % ~ > % ~ { . ' ^ * ",
"@ . + @ # + @ # $ @ ) = +., * @.#.$.9 9 %.a &.8 9 9 9 9 9 9 9 9 9 9 *.=.-.;.` 9 9 9 9 9 &.y >.# @ & # @ % # @ $ # @ & / m % > @ ",
"# , ) # , ) # , ) ^ ( / > > > ,.7 9 9 '.U 8 9 9 9 9 9 9 9 9 9 9 9 J W ).!.;.9 9 9 9 9 9 9 ~.{., # > , # > , # ) , ) { ^ , / , # ",
"& , { & > { & ^ ! # / ~ * > ] ].9 9 9 9 9 9 9 9 9 9 9 9 9 9 9 V ).W *.^./.9 (.9 9 9 9 9 9 _.:.<.& ( > & ] > & { ( =   ) ; { > & ",
"@ . + @ # + @ # - +.. % [.}.|.1.9 9 9 9 9 9 9 9 9 9 9 9 9 9 9 9 ).2.V ` 3.9 9 (.9 9 9 9 9 %.$.4.5.& # @ % # @ $ . m + , @ + .   ",
"# , ) # , ) # > ) # , > 6.7.9 9 (.9 9 9 9 9 9 9 9 9 9 9 9 9 9 (.9 9 9 9 8.9.0.a.(.9 9 9 9 9 9 8 b.c., # > , # ) > # ) , # ) , # ",
"* , ] * > ] - > ] * > d.e.9 9 9 9 (.9 9 9 9 9 9 9 9 9 9 9 9 V 9 9 9 9 9 9 f.g.g.h.(.9 9 9 9 9 9 q i.j.* ( > * ] > * ] > * ] , * ",
"@ . + @ # $ @ # $ @ # k.9 9 9 9 9 9 (.9 9 9 9 9 9 9 9 9 9 V V 9 9 9 9 9 9 9 l.m.n.o.p.q.9 9 9 9 9 8 r.@ % #   $ # @ + # @ + . @ ",
"# , ) # > ) # , ) # , s.9 9 9 9 9 9 9 (.9 9 9 9 9 9 9 9 V 9 9 9 9 9 t.9 9 9 9 9 l.u.v.w.3.x.9 9 9 9 0 y.) > # ) , # ) , # ) , # ",
"* , ] - > ] * > ( * > z.9 9 9 9 9 9 9 9 (.9 9 9 9 9 9 V V 9 9 9 9 A.m.9 9 9 9 9 9 9 9 9 (.9 9 9 9 9 9 B.C.> * ( > * ] > * ] , * ",
"@ . $ @ # + @ # $ @ # D.9 9 9 9 9 9 9 9 9 (.9 9 9 9 V V 9 9 9 9 t.E.m.9 9 9 9 9 9 9 9 9 9 (.9 9 9 9 V V F.# @ $ # @ + # @ + . @ ",
"= > ^ = , ) = , ) = , G.9 9 t.9 9 9 9 9 9 9 (.9 9 V 9 9 9 9 9 H.I.g.3.9 9 9 9 9 9 9 9 9 9 9 (.9 9 V V 9 J., = ) , = ) , = ^ , = ",
"- , ] * > ] * > ( * > K.9 9 x.L.9 9 9 x.9 9 9 (.9 M.N.9 9 9 3.O.g.h.9 H.P.9 9 9 9 9 9 9 9 9 9 (.9 V 9 9 Q.> * ( > * ] > * ] , * ",
"  . + @ # + @ # $ @ # % R.9 9 S.P.9 9 m.L.L.T.l.T.U.g.E.m.O.g.g.g.t.9 t.V.W.9 9 9 9 9 9 9 9 9 9 9 9 9 9 X.# @ $ # @ + # @ + . @ ",
"; > / ; , / ; > ^ ; > ^ Y.Z.9 3.g.`.`.g.g.g. +g.g..+g.g.g.g.++@+L.9 9 9 #+$+%+H.9 9 9 9 9 9 V V 9 (.9 9 &+> ; ^ > ; / , ; / , ; ",
"* , { * > ] * > ] * > ( * *+9 9 a.g.g.=+-+;+>+,+'+g..+g.g.)+!+t.9 9 9 9 ~+{+g.g.I.3.9 9 9 V V 9 9 9 (.9 9 ]+* ] > * ] > * ] , * ",
"@ . +   # + @ # $ @ # % [.^+9 9 9 P.m.)+/+(+_+:+<+[+}+|+1+2+3+9 9 9 9 9 4+5+6+7+g.8+9+9 V V 9 9 9 9 9 (.9 0+@ $ # @ + # @ + . @ ",
"- , ( - ) ( - > ( - > / a+9 9 9 9 9 9 M.3.L.t.9 9 9 b+c+d+e+9 9 9 9 9 1+f+g+~+h+=+i+j+k+l+9 9 9 9 9 9 9 (.m+- ( > - ( > - ( , - ",
"* , ] * > { * > ] * > ( n+9 9 9 9 9 V V 9 9 9 9 9 9 3.}+o+p+9 9 9 9 H.8+a.9 9 9 L.I. + +g.8+I.m.q+l.9 9 9 r+* ] > * ] > * ] , * ",
"@ . + @ # +   # $ @ # % s+9 9 9 9 V V 9 9 9 9 9 9 9 x.t+u+v+(.9 9 9 w+x+y+9 9 9 9 V M.T.L.L.T.t.9 9 9 9 1+z+  $ # @ + # @ + . @ ",
"* , ] * > ] * ) ( * > ( A+a.9 9 V V 9 9 9 9 9 9 9 9 9 0.B+C+D+(.9 E+F+G+g.8.x.9 V V 9 9 9 P.H+9 9 9 H.I+g.J+* ] > * ] > * ] , * ",
"* , ] * > ] * > ] * > ( K+L+J V 9 9 9 9 9 9 9 9 9 9 H+S.M+N+O+9 (.P+Q+H+q+ +R+S+I+0.q+0.L.H+9 9 9 t.O.g.T+> * ( ) * ] > * ] ^ = ",
"@ . + @ # + @ # $   # % U+V+W+-.9 9 9 9 9 9 9 9 l.I.g.g.X+Y+Z+9 `+ @9 9 .@+@@@#@q+1+3.H.9 9 9 t.`.g.g.$@%@# @ $ #   + # ' - ( &@",
"* , ] * > ] * > ] * > ( *@=@-@m.;@9 9 9 9 9 9 9 9 3.`.E.g.>@,@'@)@!@9 ~@{@]@^@/@9 9 9 9 9 9 9 t.g.g.(@_@( > * ] > * ] > = ' ) * ",
"- , ( - > ( - > ( - > @ > :@<@[@8+h.x.9 9 9 9 9 9 9 9 l.g.}@|@B+1@2@3@4@5@*.!.;.9 9 9 9 9 9 9 9 6@7@> - / > - ( > - ( / ) ! > # ",
"@ . + @ # + @ # $ @ ) # m . - 8@9@g.g.8+H+9 9 9 9 9 9 l.g.0@a@C+b@a@c@d@W e@!.9 9 9 9 9 9 9 9 H+f@& # @ % # @ $ # @ % / B $ ) @ ",
"* , ] * > ] * > ] . { ~ = ^ / * g@g.g.g.O.t.9 9 9 9 9 l.g.h@a@a@a@i@=.j@!.!.9 9 9 9 9 x.9 9 x.k@l@/ > * ( > * ] > =   ] - ! , * ",
"; , / ; , / ; ^ / > / ] # , ^ ; m@n@g.g.g.8+a.x.9 9 9 l.g.o@a@p@q@r@J !.!.V q.9 9 9 s@t@u@g.v@w@; ^ , ; ^ > ; ^ / , ~ > , / > ; ",
"@ . + @ # + @ # ; +.. & @ # &   # x@y@g.g.g.g.g.I.q+q+O.g.z@A@a@B@C@D@X t.H.9 M.P.q+E@F@G@H@* # @ & # @ % # @ $ , B $ , @ + .   ",
"* , ] * > ] * ) ] * > ( * > / * ) ^ I@J@K@L@M@N@O@g.g.g.g.P@Y+Q@a@R@g.g.g.g.g.g..+O@S@^ > * ^ > * / > * ( > * ] ) * ] > * ] , * ",
"= , ^ = , ) # > ) = , ) = , ) = > ^ = , > = , > T@U@g.g.g.V@W@p@a@X@g.g.g.g.g.g.Y@Z@= > , = > , = ) , = ) , = ^ , = ) , = ^ , = ",
"@ . + @ # $   # $ @ # % @ # & @ # *   # * @ = * @ `@ #.#+#@#q@a@##g.g.$#%#&#*#=#* =   * # @ * # @ & # @ % #   $ # @ + # @ + . @ ",
"* , ] * > ] * > ( * > ( * > / * > ^ * ) ^ * > ^ * ) ^ * ^ -#a@a@;#>#,#^ * ^ ) * ^ > * ( > * ^ > * / > * ( ) * ( > * ] > * ] , * ",
"# , ) . > ) # , ) # , > # , > # , > # , ) # , > # > > # ) '#a@a@)## > > # > > # > , # > ) # > , # > , # ) , # ) , # ) , # ) , # ",
"@ . $   # + @ # $ @ # % @ # & @ # * @ # *   = * @ ; *   - !#a@a@~#@ * - @ * ; @ * = @ * #   * # @ & #   % # @ $ # @ + # @ + . @ ",
"* > { * > ] * > ] * > ( * > / * > / * > ^ * ^ ^ * ^ / * ^ {#a@a@]#* / ^ * / ) * ^ > * ^ > * ( > * / ) * ( > * ] > * ] > * ] , * ",
". > ) # , ) # , ) # , > # , > # , > # , > # > ) # > > # > ^#a@a@/## > > # > , # > , # > , # > > # ) , # > , # ) , # ) , # ) , # ",
"@ . + @ # + @ # $ @ # % @ # & @ # * @ # * @ = *   ; * @ (#_#a@a@:#@ * - @ * ; @ * = @ * # @ * #   & # @ % # @ $ # @ + # @ + . @ ",
"& > { & > { & > { & > ] & > ( & > / & > / & ) ( & / / & <#[#a@a@}#& / ^ & / ^ & / ) & / > & / ) & ] > & ] > & { > & { > & { , & ",
"# , ^ # , ) # , ) # , > # , > # , > # , > # > > # > ) # |#1#a@a@2## > > # > , # > , # > , # ) , # > > # > , # ) , # ) , # ) , # ",
"@ . $   # + @ # $ @ # % @ # & @ # * @ # *   = * @ ; *   3#4#a@a@a@5#* - @ * ; @ * = @ * #   * # @ & #   % # @ $ # @ + # @ + . @ ",
"% , ~ % ) ~ % > ~ % > { % > ] % > ( % ) ( % ) ( % ^ ( % 6#7#a@a@a@8#( / % ( ^ % ( ) % ( ) % ( > % ] > % ~ > % ~ > % ~ > % ~ , % ",
"# , ) # > ^ # , ) # , > # , > # , > # > > # , > # > > 9#7#0#a@|@a@a#b#> # > > # > , # ) , # > , # > , # > ) # ) , # ) , # ) , # ",
"@ . + @ # $   # $ @ # % @ # & @ # *   # * @ = * @ ; * c#7#7#d#4#C+a@e#- @ * ; @ * =   * # @ * # @ & # @ % #   $ # @ + # @ + . @ ",
"$ , ! $ > ! $ ^ ! $ ) ~ $ ) { $ ) ] $ ) ( $ ) ( $ ^ ] f#7#7#A@g#h#i#|@j#k#] ^ $ ] ^ $ ( ) $ ] ) $ { ) $ ~ ) $ @ ) $ ! > $ ! , $ ",
"# , ) # , ) # > ^ # , > # > / # > > # , > # , > # > l#m#n#o#p#q#-#r#s#t#u#> ^ . ) , # > , # > , # > , # > , # ) ) # ) , # ) > . ",
"@ . + @ # + @ # $   # % ' ) > +.# * @ # * @ = * @ ; * @ - * @ * *   * -   # ^ B * = @ * # @ * # @ & # @ % # @ $ #   + #   * ( v#",
"+ , @ + > @ + ) ! $ ) ~ - { @ + ) ] + ) ] + ) ] + / ] + ( ] + ] ] + ] ( - @ ] + ] ) + ] ) + ] ) + { ) + ~ ) + ! ) +   > - B ^ + ",
"# , > # , > # , > # , ] / ^ ^ , , > # , > # , > # , > # > > # > > # > / ( ( ) > > , # > , # > , # > , # > , # > , # > ) / { , > ",
"@ . + @ # + @ # $ @ > . m . ; @ # * @ # * @ = * @ ; * @ - * @ * * @ - > &@* . @ * = @ * # @ * # @ & # @ % # @ $ # @ + / &@$ )   ",
"+ , @ + > @ + ) ! - ~ ' & / { + ) ] + ) ] + ^ ] + / ] + ( ] + ] ] * ' ! % ! / + ] ^ + ] ) + ] ) + { ) + ~ ) + ! ) & &@{ $ +., + ",
". , , . , , . ) > ( / ) ) , > . , , . , , . , , . , , . , , . > > / ( > ^ , > . , , . , , . , , . , , . , , . , ) / ] , ^ > , . ",
"@ . + @ # + @ # ; +.. * @ # &   # * @ # * @ = * @ ; * @ - * @ * . m * = @ * ;   * = @ * # @ * # @ & # @ % # @ $ ) B $ > @ + .   "};
