/* XPM */
static char * porco_xpm[] = {
"64 64 667 2",
"  	c #F3F3F1",
". 	c #F8F8F8",
"+ 	c #F3F3F2",
"@ 	c #F9F9F9",
"# 	c #FFFFFF",
"$ 	c #F9F9F8",
"% 	c #FDFCFC",
"& 	c #F0D9D9",
"* 	c #FDFDFD",
"= 	c #FEFFFF",
"- 	c #FFFEFF",
"; 	c #FEFEFE",
"> 	c #F09DA2",
", 	c #F198A0",
"' 	c #F2B7BB",
") 	c #F1C7CA",
"! 	c #F0D6D7",
"~ 	c #F8ECEC",
"{ 	c #FEFDFD",
"] 	c #FEFFFE",
"^ 	c #FEFEFF",
"/ 	c #F0A6AB",
"( 	c #FC92A0",
"_ 	c #F58B99",
": 	c #EE838F",
"< 	c #EC969D",
"[ 	c #F1D2D4",
"} 	c #F1A4A9",
"| 	c #FB919F",
"1 	c #F18795",
"2 	c #F08694",
"3 	c #EBA0A5",
"4 	c #FAF1F1",
"5 	c #F39BA3",
"6 	c #F48A98",
"7 	c #EC939A",
"8 	c #F9F2F1",
"9 	c #F18A95",
"0 	c #F68C9A",
"a 	c #EAA0A5",
"b 	c #FBF3F3",
"c 	c #F58B98",
"d 	c #EF8693",
"e 	c #F2D4D6",
"f 	c #F7E8E8",
"g 	c #F98F9C",
"h 	c #F38997",
"i 	c #EE8490",
"j 	c #E9A1A5",
"k 	c #F6E1E2",
"l 	c #F7E3E4",
"m 	c #F7EBEB",
"n 	c #FDF9F9",
"o 	c #FDFEFE",
"p 	c #F5E2E3",
"q 	c #F88E9C",
"r 	c #F08593",
"s 	c #EB828D",
"t 	c #EE8D97",
"u 	c #F2949E",
"v 	c #F69CA7",
"w 	c #FAA2AD",
"x 	c #FBA4AF",
"y 	c #F9959E",
"z 	c #F89FAA",
"A 	c #F59AA3",
"B 	c #F2A7AD",
"C 	c #F1C4C7",
"D 	c #F4E3E4",
"E 	c #FB919E",
"F 	c #F98F9D",
"G 	c #EB868F",
"H 	c #F396A2",
"I 	c #FBA5B0",
"J 	c #FB9FA9",
"K 	c #FBA0AA",
"L 	c #FB9CA7",
"M 	c #FCA0AC",
"N 	c #FCA5B0",
"O 	c #FC9DA8",
"P 	c #F9A1AC",
"Q 	c #F1A7AC",
"R 	c #F3D9D8",
"S 	c #F8EBEC",
"T 	c #F68D9A",
"U 	c #F78D9B",
"V 	c #EC848F",
"W 	c #FCA3AF",
"X 	c #EB949E",
"Y 	c #ED96A0",
"Z 	c #FDA5B0",
"` 	c #FB949F",
" .	c #FA97A2",
"..	c #FB9DA7",
"+.	c #FB9EA8",
"@.	c #FDA2AE",
"#.	c #FB9DA8",
"$.	c #F9A2AD",
"%.	c #F0ACB1",
"&.	c #F7ECEE",
"*.	c #FEFCFC",
"=.	c #F3DEDD",
"-.	c #F1C9CC",
";.	c #F3C5C9",
">.	c #F2CECF",
",.	c #F3E0E1",
"'.	c #FDFAFA",
").	c #F18E98",
"!.	c #EB838E",
"~.	c #F89EA9",
"{.	c #D17A81",
"].	c #BE666A",
"^.	c #CB757B",
"/.	c #F79FAB",
"(.	c #FC9EAA",
"_.	c #FBA3AE",
":.	c #FCA4B0",
"<.	c #F49FA7",
"[.	c #EFCCCD",
"}.	c #F1A6AC",
"|.	c #FAA1AD",
"1.	c #F39CA5",
"2.	c #F1B4B9",
"3.	c #F2C9CC",
"4.	c #F2D5D7",
"5.	c #F1D5D7",
"6.	c #EEC6C7",
"7.	c #FCFBFB",
"8.	c #EDBEC1",
"9.	c #EA848F",
"0.	c #FCA5B1",
"a.	c #FDA3AF",
"b.	c #FA99A5",
"c.	c #FB9AA6",
"d.	c #FA9CA6",
"e.	c #FA99A2",
"f.	c #FBA0AB",
"g.	c #F9A1AB",
"h.	c #F2959F",
"i.	c #F0B0B6",
"j.	c #FEFEFD",
"k.	c #F3D7D8",
"l.	c #F89FA9",
"m.	c #FBA6B1",
"n.	c #FAD0D4",
"o.	c #E6C9CB",
"p.	c #D6969E",
"q.	c #FA97A0",
"r.	c #FB9EA9",
"s.	c #FDA1AD",
"t.	c #FA9BA5",
"u.	c #FBA0AC",
"v.	c #FAA4AF",
"w.	c #FBA3AD",
"x.	c #FAA1AC",
"y.	c #FA9FAA",
"z.	c #FA9DA8",
"A.	c #F1D1D1",
"B.	c #FBF6F6",
"C.	c #F2A0A8",
"D.	c #FCD3D7",
"E.	c #D1D2D1",
"F.	c #0A120B",
"G.	c #030B03",
"H.	c #D68D95",
"I.	c #FBA1AB",
"J.	c #FB9EAA",
"K.	c #FA9EA9",
"L.	c #FA9AA5",
"M.	c #FB99A4",
"N.	c #FBA2AC",
"O.	c #F99EA9",
"P.	c #F796A1",
"Q.	c #F797A1",
"R.	c #F99DA8",
"S.	c #F197A0",
"T.	c #FAF5F5",
"U.	c #F0C6C8",
"V.	c #FCE8EB",
"W.	c #EBECEC",
"X.	c #000901",
"Y.	c #000A02",
"Z.	c #B4777F",
"`.	c #FA96A0",
" +	c #FA95A0",
".+	c #FDA3AE",
"++	c #FCA5AF",
"@+	c #FCA0AB",
"#+	c #FCA4AF",
"$+	c #FBA4AE",
"%+	c #F08991",
"&+	c #E97174",
"*+	c #E36264",
"=+	c #E35E5F",
"-+	c #F5939C",
";+	c #F0BEC0",
">+	c #FDFAF9",
",+	c #F19BA3",
"'+	c #FA91A0",
")+	c #FA92A1",
"!+	c #FC9EAB",
"~+	c #FBD6DA",
"{+	c #818280",
"]+	c #010A02",
"^+	c #060C04",
"/+	c #D98F98",
"(+	c #FBA5AF",
"_+	c #FBA3AF",
":+	c #FA9AA4",
"<+	c #FB95A0",
"[+	c #EC7D83",
"}+	c #EA757A",
"|+	c #F397A0",
"1+	c #F8EDEE",
"2+	c #FFFDFD",
"3+	c #FEFDFE",
"4+	c #F2DCDC",
"5+	c #FAA0AC",
"6+	c #FA8F9F",
"7+	c #FBA7B2",
"8+	c #DEB0B4",
"9+	c #936368",
"0+	c #CF8891",
"a+	c #DE8790",
"b+	c #DB858E",
"c+	c #FAA0AB",
"d+	c #E46365",
"e+	c #E56467",
"f+	c #F798A2",
"g+	c #F99DA7",
"h+	c #EA9498",
"i+	c #F7EAEA",
"j+	c #F9D3D7",
"k+	c #F8919D",
"l+	c #FAC4CA",
"m+	c #FCFDFD",
"n+	c #F9DEE2",
"o+	c #F2C5C7",
"p+	c #FA9FAB",
"q+	c #FA93A2",
"r+	c #FA95A4",
"s+	c #F2919E",
"t+	c #F18796",
"u+	c #F08594",
"v+	c #F28A99",
"w+	c #F496A2",
"x+	c #FBC1C7",
"y+	c #F6D8DA",
"z+	c #E2ACB2",
"A+	c #F69EA9",
"B+	c #AC5154",
"C+	c #F99EA8",
"D+	c #E56668",
"E+	c #E36263",
"F+	c #F3919A",
"G+	c #F08F97",
"H+	c #F98F9B",
"I+	c #F48E98",
"J+	c #F2CCCD",
"K+	c #FDFEFD",
"L+	c #F88D9C",
"M+	c #FAEEF0",
"N+	c #F8A3AD",
"O+	c #FBE0E3",
"P+	c #FBE3E6",
"Q+	c #FDF1F2",
"R+	c #F1B1B6",
"S+	c #F596A4",
"T+	c #EF6F83",
"U+	c #F87086",
"V+	c #F87186",
"W+	c #F97186",
"X+	c #F76F84",
"Y+	c #F06F84",
"Z+	c #F18B99",
"`+	c #FBBDC6",
" @	c #EFEFEF",
".@	c #4B4E4B",
"+@	c #B97B82",
"@@	c #DC868D",
"#@	c #FCA1AD",
"$@	c #EF8289",
"%@	c #E5696B",
"&@	c #F4929C",
"*@	c #F4969F",
"=@	c #F58B95",
"-@	c #FB919D",
";@	c #F88E99",
">@	c #EEB9BB",
",@	c #FDFCFD",
"'@	c #F8B2BA",
")@	c #F8C8CE",
"!@	c #F9D8DC",
"~@	c #FABCC3",
"{@	c #F9C6CC",
"]@	c #FDF6F7",
"^@	c #F5ADB4",
"/@	c #F8A1AB",
"(@	c #EF6E82",
"_@	c #F97187",
":@	c #F77086",
"<@	c #ED7688",
"[@	c #F89EAA",
"}@	c #FCDADD",
"|@	c #FBFBFB",
"1@	c #4F524F",
"2@	c #85545A",
"3@	c #F598A2",
"4@	c #F28A91",
"5@	c #FB929C",
"6@	c #F58C95",
"7@	c #EDBFC0",
"8@	c #FBF8F9",
"9@	c #F9BDC5",
"0@	c #F78C9B",
"a@	c #F88596",
"b@	c #F8CBCF",
"c@	c #F4ACB2",
"d@	c #F2929E",
"e@	c #F36F83",
"f@	c #E86A7E",
"g@	c #F87187",
"h@	c #EE7284",
"i@	c #FBC6CC",
"j@	c #9C9E9D",
"k@	c #010A03",
"l@	c #B67980",
"m@	c #F395A0",
"n@	c #F18A91",
"o@	c #FA939D",
"p@	c #EE868D",
"q@	c #F3D9D9",
"r@	c #F8CFD5",
"s@	c #FACFD4",
"t@	c #F293A0",
"u@	c #F77085",
"v@	c #683836",
"w@	c #A44E58",
"x@	c #F08292",
"y@	c #E4B1B7",
"z@	c #86585E",
"A@	c #B5777F",
"B@	c #F7A3AE",
"C@	c #F1939D",
"D@	c #F79AA5",
"E@	c #F3959F",
"F@	c #ED8B91",
"G@	c #FB919B",
"H@	c #F58D94",
"I@	c #EB8E93",
"J@	c #FAF4F4",
"K@	c #F6A2AC",
"L@	c #FCF8F9",
"M@	c #F3C0C4",
"N@	c #EF6D81",
"O@	c #F87085",
"P@	c #E16679",
"Q@	c #F26E83",
"R@	c #F06D82",
"S@	c #FAA3AE",
"T@	c #FAA3AD",
"U@	c #F3959E",
"V@	c #F798A3",
"W@	c #F18991",
"X@	c #FB939E",
"Y@	c #FA929B",
"Z@	c #F28F97",
"`@	c #ED9198",
" #	c #FAE3E6",
".#	c #F2D5D5",
"+#	c #F18C9A",
"@#	c #F56F85",
"##	c #D25F71",
"$#	c #B0525E",
"%#	c #F06B80",
"&#	c #F99CA8",
"*#	c #F28890",
"=#	c #FB929D",
"-#	c #F5979D",
";#	c #EA888E",
">#	c #FBF4F4",
",#	c #FAF2F3",
"'#	c #F49CA6",
")#	c #F08595",
"!#	c #F56E84",
"~#	c #EA6A7E",
"{#	c #C75C6B",
"]#	c #EF7185",
"^#	c #FA94A2",
"/#	c #F1939E",
"(#	c #F88E98",
"_#	c #F59096",
":#	c #F0888F",
"<#	c #F0CECE",
"[#	c #F0B8BC",
"}#	c #F3929E",
"|#	c #F16D82",
"1#	c #F495A2",
"2#	c #FA90A0",
"3#	c #FA909F",
"4#	c #FCA4AE",
"5#	c #F08C95",
"6#	c #FB939F",
"7#	c #F896A0",
"8#	c #F28F95",
"9#	c #ECA0A3",
"0#	c #F69EA7",
"a#	c #F2929F",
"b#	c #F08191",
"c#	c #F07789",
"d#	c #F07285",
"e#	c #F1778A",
"f#	c #F08494",
"g#	c #F79DA8",
"h#	c #EA99A3",
"i#	c #FB9FAB",
"j#	c #FA92A2",
"k#	c #FB92A1",
"l#	c #F89BA6",
"m#	c #F28991",
"n#	c #FA939E",
"o#	c #F3959D",
"p#	c #EB8389",
"q#	c #FAF3F4",
"r#	c #F0C2C4",
"s#	c #FBA4B0",
"t#	c #F5A2AC",
"u#	c #C8838B",
"v#	c #EF8C94",
"w#	c #FB919C",
"x#	c #F38E97",
"y#	c #EF8890",
"z#	c #F2DBDB",
"A#	c #FCFAFA",
"B#	c #F0A9AE",
"C#	c #F09EA8",
"D#	c #D08A91",
"E#	c #BB7B81",
"F#	c #F4A1AB",
"G#	c #F99FA9",
"H#	c #F4959E",
"I#	c #F58B94",
"J#	c #F797A0",
"K#	c #F08C93",
"L#	c #F0C5C6",
"M#	c #F9F1F1",
"N#	c #F1A3AA",
"O#	c #F699A3",
"P#	c #F18992",
"Q#	c #F7909A",
"R#	c #F08990",
"S#	c #EDB5B7",
"T#	c #F8F0F1",
"U#	c #F1A7AD",
"V#	c #F498A2",
"W#	c #F78F9A",
"X#	c #F0888E",
"Y#	c #E9A7A9",
"Z#	c #FBF8F7",
"`#	c #EFBABD",
" $	c #F89FAB",
".$	c #F2929B",
"+$	c #F28A93",
"@$	c #F18C93",
"#$	c #EBA2A6",
"$$	c #F4E1E0",
"%$	c #F99FAA",
"&$	c #FBA2AD",
"*$	c #F496A0",
"=$	c #EF8A92",
"-$	c #F78E97",
";$	c #FA9AA2",
">$	c #F18B92",
",$	c #EBA4A7",
"'$	c #F3DDDD",
")$	c #EB8990",
"!$	c #F09099",
"~$	c #F79BA5",
"{$	c #F597A1",
"]$	c #EF8F97",
"^$	c #F58D95",
"/$	c #F98F9A",
"($	c #F08890",
"_$	c #ECAFB1",
":$	c #F0C4C5",
"<$	c #FA9098",
"[$	c #F48A94",
"}$	c #F08891",
"|$	c #F18A93",
"1$	c #EF8992",
"2$	c #F68C96",
"3$	c #F88F9A",
"4$	c #EEBFC0",
"5$	c #FCFAFB",
"6$	c #EEA0A3",
"7$	c #FA919C",
"8$	c #F18890",
"9$	c #F0D4D4",
"0$	c #EFCFCF",
"a$	c #EA8187",
"b$	c #F88F98",
"c$	c #F88F99",
"d$	c #EE858C",
"e$	c #F6E9E9",
"f$	c #F5E7E7",
"g$	c #E97D83",
"h$	c #E67E82",
"i$	c #F38B92",
"j$	c #FA919B",
"k$	c #F68D96",
"l$	c #F78D98",
"m$	c #FB9BA6",
"n$	c #F99099",
"o$	c #F68E95",
"p$	c #EA8C90",
"q$	c #FDF8F9",
"r$	c #E67E83",
"s$	c #E98085",
"t$	c #E67C81",
"u$	c #EE878C",
"v$	c #F18990",
"w$	c #F1888F",
"x$	c #F68C95",
"y$	c #F68D94",
"z$	c #EDB4B7",
"A$	c #E7979A",
"B$	c #EA8085",
"C$	c #E77B81",
"D$	c #EB8288",
"E$	c #F0878E",
"F$	c #F38993",
"G$	c #FB929E",
"H$	c #F68E96",
"I$	c #EF868E",
"J$	c #F2DADA",
"K$	c #ECB4B5",
"L$	c #E77E83",
"M$	c #E67D82",
"N$	c #ED8389",
"O$	c #F2888F",
"P$	c #FB9CA6",
"Q$	c #FA929D",
"R$	c #EC8389",
"S$	c #ED848A",
"T$	c #EC8C91",
"U$	c #FCF9F9",
"V$	c #F0CCCE",
"W$	c #EA7D83",
"X$	c #FA949F",
"Y$	c #F58B93",
"Z$	c #ED858B",
"`$	c #E98187",
" %	c #EFBABC",
".%	c #F5E3E3",
"+%	c #E97F84",
"@%	c #EB7F85",
"#%	c #F28990",
"$%	c #EF868D",
"%%	c #EF888E",
"&%	c #EA8288",
"*%	c #E77D83",
"=%	c #F68C94",
"-%	c #F5E8E8",
";%	c #FBF7F7",
">%	c #EA7F84",
",%	c #F48994",
"'%	c #EEA1A6",
")%	c #EDC3C3",
"!%	c #EFC7C8",
"~%	c #F0CFD0",
"{%	c #E8AFB0",
"]%	c #E87F85",
"^%	c #EB8085",
"/%	c #ED828A",
"(%	c #F0A9AD",
"_%	c #E89296",
":%	c #E87D83",
"<%	c #F68B96",
"[%	c #FC96A2",
"}%	c #F1D3D3",
"|%	c #FFFFFE",
"1%	c #F8F2F1",
"2%	c #E97F86",
"3%	c #E67D81",
"4%	c #F3DEDE",
"5%	c #ECB0B3",
"6%	c #FA9BA4",
"7%	c #F58C96",
"8%	c #F7EEED",
"9%	c #ECB7B9",
"0%	c #F38992",
"a%	c #F0A4A9",
"b%	c #EBC9C9",
"c%	c #D97478",
"d%	c #CB6C6D",
"e%	c #C26767",
"f%	c #BE6665",
"g%	c #CE7A7A",
"h%	c #F18892",
"i%	c #F98F99",
"j%	c #F09A9E",
"k%	c #FFFEFE",
"l%	c #DAD0CF",
"m%	c #A15653",
"n%	c #AC5C5B",
"o%	c #B56060",
"p%	c #D17275",
"q%	c #F98E98",
"r%	c #F1DCDC",
"s%	c #C7C4C2",
"t%	c #4B321D",
"u%	c #4C341E",
"v%	c #4C331D",
"w%	c #A4A09B",
"x%	c #5F3C21",
"y%	c #854C3B",
"z%	c #A15951",
"A%	c #B3625F",
"B%	c #B36260",
"C%	c #E9D9D9",
"D%	c #BAB6B4",
"E%	c #4D3217",
"F%	c #684124",
"G%	c #7F4A37",
"H%	c #965246",
"I%	c #844A3D",
"J%	c #F4F3F2",
"K%	c #BEBAB8",
"L%	c #4B331C",
"M%	c #4C331E",
"N%	c #8B857F",
"O%	c #583A19",
"P%	c #5B3D1B",
"Q%	c #E7E6E5",
"R%	c #B5B2AF",
"S%	c #49301A",
"T%	c #4E3317",
"U%	c #5C3D1B",
"V%	c #543817",
"W%	c #F2F1F0",
"X%	c #E0DFDD",
"Y%	c #958E88",
"Z%	c #D4D2D1",
"`%	c #C8C5C2",
" &	c #9E9894",
".&	c #C1BEBA",
"+&	c #563819",
"@&	c #5D462F",
"#&	c #726154",
"$&	c #553818",
"%&	c #EDECEB",
"&&	c #E6E4E3",
"*&	c #B4B0AE",
"=&	c #E8E7E6",
"-&	c #DBDAD8",
";&	c #827770",
">&	c #685546",
",&	c #9F9791",
"'&	c #6C5A4D",
")&	c #57402B",
"!&	c #FBFBFA",
"~&	c #D4D2D0",
"{&	c #F0EFEE",
"]&	c #EDEDEA",
"^&	c #D6D5D2",
"/&	c #F4F4F4",
"(&	c #F5F5F5",
"  . . . . . . . . . . . . . . . . . . . . . . . . . . . . . . . . . . . . . . . . . . . . . . . . . . . . . . . . . . . . . . + ",
"@ # # # # # # # # # # # # # # # # # # # # # # # # # # # # # # # # # # # # # # # # # # # # # # # # # # # # # # # # # # # # # # $ ",
"@ # # # # # # # # # # # # # # # # # # # # # # # # # # # # # # # # # # # # # # # # # # # # # # # # # # # # # # # # # # # # # # $ ",
"@ # # # # # # # # # # # # # # # # # # # # # # # # # # # # # # # # # # # # # # # # # # # # # # # # # # # # # # # # # # # # # # $ ",
"@ # # # # # # # # # # # # # # # # # # # # # # # # # # # # # # # # # # # # # # # # # # # # # # # # # # # # # # # # # # # # # # $ ",
"@ # # # # # # # # # # % & * = = - # # # # # # # # # # # # # # # # # # # # # # # # # # # # # # # # # # # # # # # # # # # # # # $ ",
"@ # # # # # # # # # # ; > , ' ) ! ~ { ] # # # # # # # # # # # # # # # # # # # # # # # # # # # # # # # # # # # # # # # # # # # $ ",
"@ # # # # # # # # # # ^ / ( ( ( _ : < [ % # # # # # # # # # # # # # # # # # # # # # # # # # # # # # # # # # # # # # # # # # # $ ",
"@ # # # # # # # # # # ^ } ( ( ( | 1 1 2 3 4 # # # # # # # # # # # # # # # # # # # # # # # # # # # # # # # # # # # # # # # # # $ ",
"@ # # # # # # # # # # = 5 ( ( ( ( 6 1 1 1 7 8 # # # # # # # # # # # # # # # # # # # # # # # # # # # # # # # # # # # # # # # # $ ",
"@ # # # # # # # # # # % 9 ( ( ( ( 0 1 1 1 1 a % # # # # # # # # # # # # # # # # # # # # # # # # # # # # # # # # # # # # # # # $ ",
"@ # # # # # # # # # # b c ( ( ( ( 0 1 1 1 1 d e = # # # # # # # # # # # # # # # # # # # # # # # # # # # # # # # # # # # # # # $ ",
"@ # # # # # # # # # # f g ( ( ( ( h 1 1 1 1 i j k l m n o # # # # # # # # # # # # # # # # # # # # # # # # # # # # # # # # # # $ ",
"@ # # # # # # # # # # p | ( ( ( q 1 r s t u v w x y z A B C D { # # # # # # # # # # # # # # # # # # # # # # # # # # # # # # # $ ",
"@ # # # # # # # # # # p E ( ( F r G H x I I I I J K L M N O P Q R { # # # # # # # # # # # # # # # # # # # # # # # # # # # # # $ ",
"@ # # # # # # # # # # S T ( U V u W X Y I I I Z ` I  ...K +.@.#.$.%.&.; *.=.-.;.>.,.'.# # # = # # # # # # # # # # # # # # # # $ ",
"@ # # # # # # # # # # % ).6 !.~.I {.].^./.I I N M I I O (.#.#._.I :.<.[.}.w N I I |.1.2.3.4.5.6.7.# # # # # # # # # # # # # # $ ",
"@ # # # # # # # # # # ; 8.9.P I I 0.I I I I I x a.b.c.:.d.e.f. ._.I g.h.N I I I I I I I 0.Z N i.j.# # # # # # # # # # # # # # $ ",
"@ # # # # # # # # # # = k.l.I I m.n.o.p.I I I q.r.s.t.f.x u.I N I I v._.I I I I I I I w.x.y.z.A.# # # # # # # # # # # # # # # $ ",
"@ # # # # # # # # # # B.C.I I I D.E.F.G.H.I I I.J.f.K.L.#.M.I I I I I I I I I I I N.O.P.Q.R.S.T.# # # # # # # # # # # # # # # $ ",
"@ # # # # # # # # # # U.x I I I V.W.X.Y.Z.I I `. +.+++@+#+I I I I I I I I I I $+%+&+*+=+-+R.;+# # # # # # # # # # # # # # # # $ ",
"@ # # # # # # # # # >+,+'+)+!+I ~+{+]+^+/+I (+_+:+@+<+f.I I I I I I I I I I I [+=+=+=+}+R.|+1+# # # ] ^ = 2+3+# # # # # # # # $ ",
"@ # # # # # # # # # 4+5+6+6+'+:.7+8+9+0+I I I I N I ++I I I I a+b+I I I I I c+d+=+=+e+f+g+h+i+# # ^ j+k+l+m+n+; # # # # # # # $ ",
"@ # # # # # # # # # o+#+p+q+r+x.s+t+u+v+w+$+N I I I I x+y+z+v.A+B+N I I I $+C+D+=+E+F+R.G+H+I+J+K+o L+M+N+O+P+Q+# # # # # # # $ ",
"@ # # # # # # # # # R+I I I S+T+U+V+W+V+X+Y+Z+_.I I `+ @.@]++@I @@N I I I #@R.$@%@&@R.*@=@-@-@;@>@,@'@)@!@~@{@]@# # # # # # # $ ",
"@ # # # # # # # # # ^@I I /@(@_@_@_@_@_@_@_@:@<@[@I }@|@1@Y.2@I I I I I I u.R.R.R.R.3@4@5@-@-@-@6@7@8@9@0@a@b@; # # # # # # # $ ",
"@ # # # # # # # # # c@I I d@U+_@e@f@g@_@_@_@_@U+h@P i@j@k@]+l@I I I I I I p+R.R.R.m@n@5@-@-@-@-@o@p@q@] r@s@; # # # # # # # # $ ",
"@ # # # # # # # # # i.I I t@u@g@v@w@:@_@_@_@_@_@U+x@I y@z@A@B@I I I I I I C@D@E@F@=@G@-@-@-@-@-@K.H@I@J@K@L@# # # # # # # # # $ ",
"@ # # # # # # # # # M@I I $.N@_@O@V+_@_@_@P@Q@_@_@R@S@I I I I I I I I I I T@U@V@W@-@-@-@-@-@-@-@X@Y@Z@`@ #= # # # # # # # # # $ ",
"@ # # # # # # # # # .#I I I +#@#_@_@_@_@g@##$#g@_@%#5+I I I Z Z I I I I I _.R.&#*#-@-@-@-@-@-@-@=#t.-#;#>## # # # # # # # # # $ ",
"@ # # # # # # # # # ,#'#I I I )#!#_@_@_@_@~#{#g@_@]#W I I W q+^#p+I I I I y.R./#(#-@-@-@-@-@-@-@-@#._#:#<## # # # # # # # # # $ ",
"@ # # # # # # # # # # [#I I I I }#]#u@W+_@_@W+W+|#1#I I I _+2#6+3#4#I I #@R.R.5#-@-@-@-@-@-@-@-@-@6#7#8#9#o # # # # # # # # # $ ",
"@ # # # # # # # # # = i+0#N I I I _+a#b#c#d#e#f#g#I h#I I I i#j#k#_.I x R.R.l#m#-@-@-@-@-@-@-@-@-@-@n#o#p#q## # # # # # # # # $ ",
"@ # # # # # # # # # # ^ r#$+I I I I I s#$+x (+I I t#u#I I I I I (+I #+O.R.R.v#w#-@-@-@-@-@-@-@-@-@-@-@x#y#z## # # # # # # # # $ ",
"@ # # # # # # # # # # # A#B#I I I I I I I I I C#D#E#F#I I I I I I #+G#R.R.H#I#-@-@-@-@-@-@-@-@-@-@-@ .J#K#L#= # # # # # # # # $ ",
"@ # # # # # # # # # # # # M#N#I I I I I I I I I I I I I I I I I x O.R.R.O#P#-@-@-@-@-@-@-@-@-@-@-@-@#.Q#R#S#o # # # # # # # # $ ",
"@ # # # # # # # # # # # # # T#U#(+I I I I I I I I I I I I I I @.K.R.R.V#P#-@-@-@-@-@-@-@-@-@-@-@-@-@M.W#X#Y#] # # # # # # # # $ ",
"@ # # # # # # # # # # # # # # Z#`# $N I I I I I I I I I I _.y.R.R.R..$+$-@-@-@-@-@-@-@-@-@-@-@-@-@-@-@e.@$#$] # # # # # # # # $ ",
"@ # # # # # # # # # # # # # # # ; $$U#%$_+++Z Z Z Z x &$y.R.R.R.*$=$-$-@-@-@-@-@-@-@-@-@-@-@-@-@-@-@-@;$>$,$- # # # # # # # # $ ",
"@ # # # # # # # # # # # # # # # # # * '$)$!$~$y.y.O.R.R.C+{$]$=$^$w#-@-@-@-@-@-@-@-@-@-@-@-@-@-@-@-@-@/$($_$; # # # # # # # # $ ",
"@ # # # # # # # # # # # # # # # # # # # :$<$[$}$|$1$1$|$}$2$w#-@w#-@-@-@-@-@-@-@-@-@-@-@-@-@-@-@-@-@-@3$($4$; # # # # # # # # $ ",
"@ # # # # # # # # # # # # # # # # # # # 5$6$7$-@-@-@-@-@-@-@-@-@-@-@-@-@-@-@-@-@-@-@-@-@-@-@-@-@-@-@-@3$8$9$# # # # # # # # # $ ",
"@ # # # # # # # # # # # # # # # # # # # # 0$a$b$w#-@-@-@w#-@-@-@-@-@w#-@-@-@-@-@-@-@-@-@-@-@-@-@-@-@-@c$d$e$# # # # # # # # # $ ",
"@ # # # # # # # # # # # # # # # # # # # # f$g$h$i$b$j$-@k$l$-@-@-@-@m$-@5@-@-@-@-@n$w#-@-@-@-@-@-@-@-@o$p$* # # # # # # # # # $ ",
"@ # # # # # # # # # # # # # # # # # # # # q$r$s$t$u$v$6@^$[$-@-@-@-@..-@w$-@-@-@-@x$6@-@-@-@-@-@-@-@-@y$z$] # # # # # # # # # $ ",
"@ # # # # # # # # # # # # # # # # # # # # = A$s$B$C$D$:#E$F$-@-@-@-@G$=#E$-@-@-@b$H$I$-@-@-@-@-@-@-@-@i$J$# # # # # # # # # # $ ",
"@ # # # # # # # # # # # # # # # # # # # # = K$s$s$s$L$M$N$O$w#-@-@ .P$Q$R$4@v$:#:#:#S$G@-@-@-@-@-@-@-@T$U$# # # # # # # # # # $ ",
"@ # # # # # # # # # # # # # # # # # # # # = V$B$s$s$s$B$W$O$w#-@-@z.X$Y$Z$:#:#:#:#:#`$j$-@-@-@-@-@-@w# %# # # # # # # # # # # $ ",
"@ # # # # # # # # # # # # # # # # # # # # # .%+%s$s$s$s$@%#%-@-@-@` n#$%X#%%:#:#p@&%*%F$-@-@-@-@-@-@=%-%# # # # # # # # # # # $ ",
"@ # # # # # # # # # # # # # # # # # # # # # ;%t$s$s$s$s$>%,%-@-@-@X$t.'%)%!%~%{%t$]%^%/%-@-@-@-@-@-@(%; # # # # # # # # # # # $ ",
"@ # # # # # # # # # # # # # # # # # # # # # o _%s$s$s$s$:%<%-@-@-@[%Y@}%# ] |%1%2%s$s$3%w#-@-@-@-@c$4%# # # # # # # # # # # # $ ",
"@ # # # # # # # # # # # # # # # # # # # # # j.5%B$B$s$B$t$3$-@-@=#6%7%8%# # # # 9%s$B$>%0%-@-@-@-@a%; # # # # # # # # # # # # $ ",
"@ # # # # # # # # # # # # # # # # # # # # # # b%c%d%e%f%g%h%i%-@-@7$j%k%# # # # l%m%n%o%p%F$q%w#k$r%= # # # # # # # # # # # # $ ",
"@ # # # # # # # # # # # # # # # # # # # # # # s%t%u%v%v%w%x%y%z%A%B%C%# # # # # D%v%v%v%E%F%G%H%I%J%# # # # # # # # # # # # # $ ",
"@ # # # # # # # # # # # # # # # # # # # # # # K%v%L%M%v%N%O%P%P%P%O%Q%# # # # # R%v%S%L%T%U%P%P%V%W%# # # # # # # # # # # # # $ ",
"@ # # # # # # # # # # # # # # # # # # # # # # X%Y%Z%`% &.&+&@&#&+&$&%&# # # # # &&*&=&-&;&>&,&'&)&!&# # # # # # # # # # # # # $ ",
"@ # # # # # # # # # # # # # # # # # # # # # # # # # # # * ~&{&k%]&^&; # # # # # # # # # /&(&# ; {&; # # # # # # # # # # # # # $ ",
"@ # # # # # # # # # # # # # # # # # # # # # # # # # # # # # # # # # # # # # # # # # # # # # # # # # # # # # # # # # # # # # # $ ",
"@ # # # # # # # # # # # # # # # # # # # # # # # # # # # # # # # # # # # # # # # # # # # # # # # # # # # # # # # # # # # # # # $ ",
"@ # # # # # # # # # # # # # # # # # # # # # # # # # # # # # # # # # # # # # # # # # # # # # # # # # # # # # # # # # # # # # # $ ",
"@ # # # # # # # # # # # # # # # # # # # # # # # # # # # # # # # # # # # # # # # # # # # # # # # # # # # # # # # # # # # # # # $ ",
"@ # # # # # # # # # # # # # # # # # # # # # # # # # # # # # # # # # # # # # # # # # # # # # # # # # # # # # # # # # # # # # # $ ",
"@ # # # # # # # # # # # # # # # # # # # # # # # # # # # # # # # # # # # # # # # # # # # # # # # # # # # # # # # # # # # # # # $ ",
"+ $ $ $ $ $ $ $ $ $ $ $ $ $ $ $ $ $ $ $ $ $ $ $ $ $ $ $ $ $ $ $ $ $ $ $ $ $ $ $ $ $ $ $ $ $ $ $ $ $ $ $ $ $ $ $ $ $ $ $ $ $ $ + "};
