/* XPM */
static char * fence_xpm[] = {
"73 64 19 1",
" 	c #E6E6E6",
".	c #E0C499",
"+	c #B3875A",
"@	c #E8D0A7",
"#	c #DABA8E",
"$	c #C8A16F",
"%	c #C09766",
"&	c #FFFFFF",
"*	c #D3B284",
"=	c #CFAB79",
"-	c #A37951",
";	c #B49168",
">	c #C2A37D",
",	c #EDEFF2",
"'	c #8B6746",
")	c #CEB9A1",
"!	c #E7D9C3",
"~	c #674A31",
"{	c #311F13",
",,,,,,,,,,,,,&&&,,&&&&,,&&&,,&&,,&&,,,&&,,&&,,,,,,,,,,,,,,,,,,,,,,,,,,,&&",
",,,,,,,,,,,,,,&&,,&&&&,,&&,,,&&,,&&,,,&&,,&&,,,,,,,,,,,,,,,,,,,,,,,,,,,&&",
",,,,,,,,,,,,,,,&&&,,,,&&,,,,,,,&&,,&&&,,&&,,,,,,,,,,,,,,,,,,&,,,,&,,,&&,,",
",,,,,,,,,,,,,,,,&&,,,,&&,,,,,,,&&,,,&,,,&&,,,,,,,,,,,,,,,,,,&&,,&&,,,&&,,",
",,,,,,,,,,,,,,,,,,,,,&&,&,,,,,,,,,,,,,,,,,,,,,,,,,,,,,,,,,,,,,,,,,,,,,&&&",
",,,,,,,,,,,,,,,,,,,,&&,,&&,,,,,,,,,,,,,,,,,,,,,,,,,,,,,,,,,,,,,,,,,,,,,&&",
",,,,,,,,,,,,,,,,,,,,,&,,&&,,,,,,,,,,,,,,,,,,,,,,,,,,,,,,,,,,,,,,,,,,,,&&&",
",,,,,,,,,,,&&,,,&,,,,,&&,,,,,,,&&,,,&,,,,,,,     ,,,,,,,,,,,&&,,,,,,,&&,,",
",,,,,,,,,,,,&,,,&,,,,,&&,,,,,,,&&,,&&,,,,,         ,,,,,,,,,&,,,,,,,,&&,,",
",,,,,,,,,,,,,,,,,,,,&&,,&&,,,&&,,&&,,,,,   !!!!!!!  ,,,,,,,,,,,,,,,,,,,&&",
",,,,,,,,,,,,,,,,,,,,&&,,&&,,,&&,,&&,,,   !!@@@@!!!!  ,,,,,,,,,,,,,,,,,,&&",
",,,&,,,,,,,,,,,,&,,,,,&&,,,,,,,&&,,,   !!@.....@..@!  ,,,,,,&,,,,,,,,&&,,",
",,&&,,,,,,,,,,,,&,,,,,&&,,,,,,,&&,,  !!@@.#**##.##.@!  ,,,,,&&,,,,,,,&&,,",
",,,,,,,,,,,,,,,,,,,,,,,,,,,,,,,,,,, !!@@@.#***###*#@!!! ,,,,,,,,,,,,,,,,,",
",,,,,,,,,,,,,,,,,,,,,,,,,,,,,,,,,,  !@....#***###*#.@@! ,,,,,,,,,,,,,,,,,",
",,,,,,,,,,,,,,,,,,,,,,,,,,,,,,,,, !!!@##..#***###*#...@!,,,,,,,,,,,,,,,,,",
",,,,,,,,,,,,,,,,,,,,,,,,,,,,,,,, !@!!@##..#***###**###.! ,,,,,,,,,,,,,,,,",
",,   ,,,,,,,,,,,,,,,,,,,,,,,,,, !@.@@@##.##***###**##*#!   ,,,  ,,,,,,,  ",
",  ! ,,,,,,  ,,,,,,,,,,,,,,,,,  !.#.@.##..#***###**##*#.!! ,,  ! ,,,,, !!",
"  !!! ,,,  !! ,,,,,,,,,,,,,,,, !!.#...##..#***###**##**#@!    !!! ,,, !!@",
"!!@.@! , !!@@! ,,,,,,,,,,,,,,, !!.##.###..##**###**##**#.@!  !@.@!   !@.#",
"!!#*.!   @.#.!  ,,,,,,,,,,,,,, !!.##.#*##.##**###**##***#@!! !)*.@  !@.#*",
"!@#=#@!  )**#@! ,,,,,,,,,,,,,, !!.##.#**####**###**##***#@!!!!#=*@! !@#**",
"!@#=*.! !)>=#@! ,,,,,,,,,,,,,, !!.##.#**####**###**##***#@!!!@*=*.! !.***",
"@@#=*.! !)>=#@! ,,,,,,,,,,,,,, !!.##.#**###***###**##***#.!!!@*=*.! !.**=",
"@.*=*.! !)>=#@! ,,,,,,,,,,,,,, !!.*#.#**##****###**##***#@!!!@*=*.! !.*==",
"!@#=*)!  )==#@! ,,,,,,,,,,,,,, !!.*#)#**##****##********#@!!!@*=*.! !.*==",
"!@#=*)! !)==*.!  ,,,,,,,,,,,,, !@#**)******=***#*==**===*.!!!@*=*.! !#===",
"))*$>*)!@#==*#)!! ,,,,,,,,,,   !@#=>>>========**=======$=#))))=$=#@!)*===",
">>$$$>>)*>$>>>>))! ,,,,,,,,  !!@)*=$>>==$$===$$====$$$$%%>*>>>$$=**)*>===",
";%$$$$>>>%%>>>>))! ,,,,,,,,  !!.)*=$%$=$$$==$$$$$=$$%$$%%>>>%%%$===>>>===",
">>>>==*)>>%>>>))!! ,,,,,,,,, !!@.#*>>>==>>==$$$$$==$$$$%%>**>$%$=**)**===",
"**>>**)))>%>>))!! ,,,,,,,,,,  !@.#**====>====$$=====$$$$>*)))>$$=#)))#*==",
"@.#**)!!!)>$*)!! ,,,,,,,,,,,,  !@.****===**==>=****==>>=*)@!@)>$*.!!!.***",
"!@#**)! !)>=*@! ,,,,,,,,,,,,,, !!.*##*******=>*##****=>=#@!!!@*$*@! !.***",
"@@#**)!  )==#@! ,,,,,,,,,,,,,, !!.*###**##*****##*******#@!!!@*=*@! !.***",
"@@#**)!  .**#@!,&&,,,,&&,,,,,, !!.##.#*#.##***###**##***#@!!!@*=#@! !.#**",
"!@#**)!  @**#! ,,,,,,&&&&,,,,,,!!.##.###..#**########***#@!!!@#=#@! !.#**",
"!@#**.!  @#*)! ,,,,,&&,,&&,,,&, !.##..##..#*###.#####***#@!!!@#*#@! !@#*=",
"!@#=*.!  @**#! ,,,,,,&,,&&,,,,, !.##..##..#*###.####****#@!!!@#*#@! !@#*=",
"@@#=*.!  .**#@!,&&,,,,&&,,,,,, !!.##..##.##*#######*****#.!!!@#*#@! !@#*=",
"@@*>*.! !)*=#@!,,,,,,,&&&,,,,,,!!.##..##.##**#####*******.!!!@#*#@! !.*==",
"!@*>>)! !)==#! ,,,,,&&,,&&,,,&, !.##..####****##*******=*)!!!@#*#@! !.*=$",
"!@*>>)! !)>=#! ,,,,,&&,,,&,,,&, !.*#..####****##*==****>*)!!!@*=*@! !#=$$",
"))>;>)! !)>=#@! ,,,,,,,,,,,,,,,!!.*#.#####****##*======>>)!!!@*>*.! !#=$%",
")*>;>)! !)>=#.!! ,,,,,,,,,,,,, !!#*#.#**#**==**#*$$====$>)@!!)>$=.!!!#$%%",
">>;;;>)))>%>**))! ,,,,,,,,,,,,, !#=*##****====**=$$$$$$%%>)))*>%=*)))>$%%",
";;;+;;>>>;;$>>>*)! ,&,,,,&,,,,,!@#==**====$$>>>==$$%%%%;;;%>>;;%$=*>>$%%%",
";;;+;%>>>;;%$%>*@! ,,,,,,,,,, !!)*$$===$$$$%%%%$$$%%;;;++;$$%;;;$>>>>$%%%",
">>;;;>*)*;;%$>*)! ,,,,,&,,,, !@#>>$%%$$%%;%%;;;;%%%++;;;;$=*>>;;>>)))>$%%",
"))>;;>)))>%%=*)!! ,,,,,,,,, !@#=$$$%;%$%;;%%;;;%%%%;;;;;%*).)*>%>*)!)>$%%",
"!)>;;>)!!)$$=)!! ,&&&,,,,,, !@*=$$$%;%$%;;%$%;%$%%%%%$>>>)@!!)>$=)! !*$%%",
"!@>;%*! !)>$=.! ,,&&&,,,,&, !!.*=$$%%$$$%%$$%%$$$%%%$>>>>)!!!@*$=)! !)$%%",
"@.>;%*! !)>%>.! ,,,,,,,,,,,,  !@#=$$>>=>>>$$$$$>$%%$$>>>>)!!!@*$>)! !#$%%",
"!@*>>)!  )==*@! ,,,,,,,,,,,,,, !@*$$>>==>>$$$$>>$%%$$>>>*)!!!!)**)! !.*==",
"!!)))@!  @.#.!  ,,,,,,,,,&,,,,,!@#$$>>======$>>>$$$$>*)))!!  !!@@!   !..#",
"  !@!!   !@@!  ,,,,,&&,,&&,,,&, @#$>>==*************)))))!    !!!! , !!!@",
",      ,     ,,,,,,,,,&&&,,,,,,!@#=>****####))))@!!!!!!!!  ,,,    ,,,,   ",
",,,,,,,,,,,,&,,,&&,,,,&&,,,,,,,!!)*)))#...))!!!!!     ,,,,,,&&,,,,,,,&,,,",
",,,,,,,,,,,,,,,,,,,,,,&&&,,,,,, !@)@!!!!!!!!      ,,,,,,,,,,,,,,,,,,,&&&&",
",,,,,,,,,,,,,,,,,,,,&&,,&&,,,&,, !!!        ,,,,,,,,,,,,,,,,,,,,,,,,,,,&&",
",,,,,,,,,,,,,,,,,,,,,&,,&&,,,&,,,   ,,,,,,,,,,,,,,,,,,,,,,,,,,,,,,,,,,,&&",
",,,,,,,,,,,,,,,,&,,,,,&&,,,,,,,&,,,,&,,,&&,,,,,,,,,,,,,,,,,,,,,,,,,,,&&,,",
",,,,,,,,,,,,,,,&&&,,,,&&,,,,,,,&&,,&&&,,&&,,,,,,,,,,,,,,,,,,,,,,,,,,,&&,,"};
